<svg xmlns="http://www.w3.org/2000/svg" viewBox="0 0 99.99992 100"><title>Profile 10</title><path d="M99.99845,49.99857a49.8665,49.8665,0,0,1-16.6344,37.2398c-.07306.06567-.14612.13138-.219.18978-.64241.56931-1.29926,1.124-1.9782,1.65686v.0073a50.00554,50.00554,0,0,1-62.08563.2044V89.2894c-.562-.44523-1.11678-.89781-1.6569-1.36492-.08037-.06571-.15325-.13137-.23362-.19709A49.99876,49.99876,0,1,1,99.99845,49.99857Z" fill="#fff1d1"/><path d="M81.1587,89.0879v.00731a50.00574,50.00574,0,0,1-62.08581.20435v-.00731l2.48178-1.27733c.05114-.02918.10942-.05836.16056-.08759.5109-.26275,1.00718-.54012,1.50365-.83936.17517-.09489.35034-.2044.52551-.3139.24075-.13864.47437-.29194.708-.44523.23362-.146.45975-.29194.68606-.45985.23362-.14594.45994-.30654.68607-.47441A34.70283,34.70283,0,0,0,31.912,79.84c.66415-.7737,1.29925-1.56927,1.89052-2.40138a35.12638,35.12638,0,0,0,1.93418-3.0072,33.68743,33.68743,0,0,0,2.21894-4.62763c.39418-1.00722.73721-2.04372,1.03641-3.08748a1.0399,1.0399,0,0,0,.03653-.11677c.095-.31385.17517-.62775.25554-.9416.05827-.19705.10941-.40875.15325-.6131.05114-.2117.0948-.42336.13864-.635.07306-.29929.13133-.59853.18247-.90508.00731-.00731.00731-.00731,0-.01461.05115-.23358.095-.47446.13134-.7153l1.16061-7.05091.2117-1.29195.219-1.37948H59.1375l.438,2.67143,1.16774,7.05091c.03653.24084.08037.47442.13133.7153v.0073c.18979,1.05838.438,2.09483.7226,3.11667a34.60307,34.60307,0,0,0,5.23355,10.82451c.59126.8248,1.21888,1.62768,1.89034,2.40138a33.86337,33.86337,0,0,0,4.759,4.55464c.43071.35035.86854.67881,1.32117,1,.45263.32847.91238.635,1.37962.93426.27.17517.53994.35038.8101.51094.20439.12407.40879.24819.61318.36495.3065.18248.62762.35765.94143.52556.17535.10215.35782.18974.53282.28463Z" fill="#b598ff"/><path d="M58.4076,66.17616c-.32842.71529-4.10946,8.518-12.6201,9.89751a16.54553,16.54553,0,0,1-10.05081-1.64228,33.68743,33.68743,0,0,0,2.21894-4.62763c.39418-1.00722.73721-2.04372,1.03641-3.08748a1.0399,1.0399,0,0,0,.03653-.11677c.08749-.31385.17517-.62044.25554-.9416.05827-.19705.10941-.40875.15325-.6131.05114-.2117.10211-.42336.13864-.635.07306-.29929.13133-.59853.18247-.90508.00731-.00731.00731-.00731,0-.01461.05115-.23358.095-.47446.13134-.7153l1.16061-7.05091.2117-1.29195H56.22519l1.27,7.60565A36.04474,36.04474,0,0,0,58.4076,66.17616Z" fill="#7e51ed"/><path d="M78.548,87.73092a50.00932,50.00932,0,0,1-56.83034.19709c.51089-.2628,1.00718-.54017,1.50364-.83941.175-.09489.35034-.20435.52551-.31386.24075-.13868.47437-.292.708-.44523.23344-.146.45976-.292.68607-.45984.23362-.146.45975-.30659.68607-.47446a34.70257,34.70257,0,0,0,6.08748-5.55457c.66415-.7737,1.29925-1.56931,1.89051-2.40137A39.08333,39.08333,0,0,0,40.69515,79.848a39.89609,39.89609,0,0,0,26.138-2.40868c.59109.82475,1.21889,1.62767,1.89034,2.40137a33.86648,33.86648,0,0,0,4.759,4.5546c.43071.35034.86855.67881,1.32117,1,.45245.32847.91239.635,1.37945.9343.27015.17517.54012.35034.81027.5109.2044.12412.40879.24819.613.36495C77.913,87.38784,78.23415,87.56305,78.548,87.73092Z" fill="#fff"/><ellipse cx="50.84565" cy="41.75058" rx="29.06593" ry="9.11872" fill="#4e0dd1"/><path d="M79.08284,88.01205,81.163,89.085v.00731a50.00555,50.00555,0,0,1-62.08563.20439v-.00731l2.48161-1.27733c.562-.292,1.11677-.59853,1.6642-.927.17517-.1022.35034-.20435.52551-.31386.23362-.146.47455-.292.708-.44523.22631-.146.45993-.29929.68607-.45984.23362-.1533.45993-.31386.68625-.47446a34.82831,34.82831,0,0,0,6.06538-5.55457h.02922a39.87179,39.87179,0,0,0,36.78735,0h.029a35.03415,35.03415,0,0,0,4.74438,4.5546c.43071.34308.876.67881,1.32117,1,.45263.32116.91239.635,1.37963.9343.27.17517.54012.35034.81009.51094.2044.12407.40879.24815.61319.365C78.09009,87.48649,78.58655,87.75656,79.08284,88.01205Z" fill="#d4299e"/><path d="M50.31953,69.08132h0A12.76261,12.76261,0,0,1,37.55689,56.31871V39.62812c0-7.0486,6.24017-4.56783,13.28876-4.56783h0c7.0486,0,12.23649-2.48077,12.23649,4.56783V56.31871A12.76262,12.76262,0,0,1,50.31953,69.08132Z" fill="#b598ff"/><circle cx="56.10258" cy="45.94031" r="1.39591" fill="#4e0dd1"/><circle cx="44.53645" cy="45.94031" r="1.39591" fill="#4e0dd1"/><path d="M46.98464,55.71914h7.722a0,0,0,0,1,0,0v.45967a3.861,3.861,0,0,1-3.861,3.861h0a3.861,3.861,0,0,1-3.861-3.861v-.45967a0,0,0,0,1,0,0Z" fill="#fff"/><path d="M50,3.6465A46.353,46.353,0,0,1,80.92135,84.53077l-.053.04895-.07276.058-.06933.06152c-.6377.56519-1.23,1.0614-1.81055,1.51721l-.85767.67762a46.36457,46.36457,0,0,1-56.24463-.09217l-.46752-.3706c-.58887-.46656-1.09156-.88037-1.53663-1.26526l-.04126-.03528-.0354-.02918-.05273-.04492c-.04272-.0365-.08545-.073-.12939-.10949A46.35266,46.35266,0,0,1,50,3.6465M50,0A49.99915,49.99915,0,0,0,17.19063,87.72743c.08032.06567.15332.13135.23364.197.54029.46716,1.095.91968,1.657,1.365v.0072A50.00559,50.00559,0,0,0,81.167,89.0923V89.085c.679-.53283,1.33569-1.08752,1.978-1.65686.073-.05835.146-.12414.219-.18982A49.99949,49.99949,0,0,0,50,0Z" fill="#ffc63d"/><path d="M38.62633,20.46314,34.68587,38.14308H67.00543L63.065,20.46314a6.38934,6.38934,0,0,0-8.24093-4.67679l-1.40106.46294a8.21487,8.21487,0,0,1-5.15468,0l-1.40106-.46294A6.38934,6.38934,0,0,0,38.62633,20.46314Z" fill="#4e0dd1"/><path d="M36.11565,31.72758l-1.30118,5.83836a58.26929,58.26929,0,0,1,16.03107-2.0106A58.272,58.272,0,0,1,66.87683,37.566l-1.3014-5.83836a60.95726,60.95726,0,0,0-14.72989-1.64887A60.96136,60.96136,0,0,0,36.11565,31.72758Z" fill="#2f0783"/><path d="M79.91158,41.749c0-5.03527-13.01321-9.11717-29.06593-9.11717S21.77973,36.71376,21.77973,41.749l14.2224.39064c0-2.25719,6.64569-4.087,14.84352-4.087s14.84353,1.82982,14.84353,4.087Z" fill="#4e0dd1"/><path d="M0,0V100H99.99992V0ZM80.89621,84.48844c-.06736.06081-.13508.12167-.20279.17575-.59484.52725-1.20321,1.041-1.8319,1.53439v.00677a46.30892,46.30892,0,0,1-57.4961.18929v-.00677c-.5207-.41231-1.03427-.83143-1.53465-1.264-.07449-.06086-.14185-.12167-.21634-.18252a46.30243,46.30243,0,1,1,61.28178-.4529Z" fill="#ffc63d"/></svg>